<?xml version="1.0" standalone="no"?>
<!DOCTYPE svg PUBLIC "-//W3C//DTD SVG 20010904//EN"
 "http://www.w3.org/TR/2001/REC-SVG-20010904/DTD/svg10.dtd">
<svg version="1.0" xmlns="http://www.w3.org/2000/svg"
 width="1120.000000pt" height="1120.000000pt" viewBox="0 0 1120.000000 1120.000000"
 preserveAspectRatio="xMidYMid meet">

<g transform="translate(0.000000,1120.000000) scale(0.100000,-0.100000)"
fill="#000000" stroke="none">
<path d="M2669 6697 c-16 -12 -131 -116 -257 -233 l-63 -59 74 0 c65 0 83 -4
143 -35 162 -83 219 -264 135 -434 -17 -35 -31 -67 -31 -71 0 -4 13 -25 29
-48 17 -23 37 -71 46 -105 31 -123 78 -165 200 -183 44 -7 86 -17 93 -22 8 -6
12 -39 12 -98 0 -103 2 -104 85 -65 82 38 166 148 195 257 39 142 6 318 -82
446 -32 47 -135 126 -154 119 -7 -3 -15 0 -18 7 -3 9 -7 9 -13 -1 -6 -8 -18
23 -35 93 -17 68 -41 131 -69 181 -72 132 -247 282 -290 251z m237 -261 c7
-30 -8 -59 -45 -85 -37 -27 -54 -26 -87 3 l-28 23 41 42 c33 33 49 41 77 41
29 0 37 -4 42 -24z"/>
<path d="M1806 6323 c-3 -10 -7 -36 -10 -58 -4 -31 -2 -27 9 15 8 30 12 56 10
58 -2 2 -6 -5 -9 -15z"/>
<path d="M3586 6242 c-7 -12 84 -198 187 -383 139 -249 127 -209 127 -439 l0
-201 123 3 122 3 5 195 5 195 77 140 c42 77 119 217 171 310 l95 170 -125 3
c-108 2 -127 0 -138 -14 -6 -9 -49 -89 -95 -176 -72 -140 -84 -157 -94 -141
-7 10 -48 86 -90 168 -43 83 -81 154 -86 159 -13 13 -276 21 -284 8z"/>
<path d="M8647 6228 c-17 -13 -360 -911 -373 -977 l-7 -32 123 2 122 1 19 44
c10 24 29 65 40 92 24 53 21 57 54 -60 8 -32 20 -58 26 -58 6 0 6 7 1 18 -8
14 -14 43 -36 163 -7 38 17 130 75 284 34 91 64 165 68 165 3 0 32 -71 63
-158 31 -86 72 -193 91 -237 19 -44 49 -119 67 -167 l33 -88 123 0 c83 0 124
4 124 11 0 9 -239 632 -349 909 l-37 95 -105 3 c-73 2 -110 -1 -122 -10z"/>
<path d="M9378 6234 c-5 -4 -8 -234 -8 -511 l0 -503 125 0 125 0 0 505 0 505
-74 0 c-40 0 -93 3 -117 6 -24 3 -47 2 -51 -2z"/>
<path d="M1748 6196 c-21 -6 -46 -18 -55 -26 -10 -9 -21 -15 -25 -15 -12 0
-50 -36 -45 -42 3 -3 16 2 29 11 34 24 51 21 36 -6 -7 -13 -17 -26 -23 -30 -6
-5 -5 -8 3 -8 8 0 12 -20 12 -64 0 -36 5 -68 10 -71 6 -3 10 -17 10 -31 0 -36
33 -95 77 -137 70 -67 108 -97 126 -97 9 0 17 -7 17 -15 0 -14 54 -30 94 -27
10 0 31 -5 47 -13 23 -12 31 -13 53 -1 l26 13 -26 11 c-14 7 -31 12 -39 12 -8
0 -15 4 -15 9 0 4 -18 21 -41 35 -65 43 -135 123 -170 194 -41 83 -50 117 -58
223 l-6 86 -37 -11z"/>
<path d="M4705 6102 c-165 -50 -261 -148 -310 -316 -13 -44 -16 -85 -13 -165
3 -94 7 -114 35 -174 80 -169 253 -258 443 -228 194 31 351 204 381 419 20
140 -17 305 -88 391 l-20 24 -62 -74 c-34 -41 -82 -103 -107 -139 l-45 -66 17
-39 c30 -73 -4 -175 -59 -175 -25 0 -202 176 -187 185 6 3 36 -16 67 -44 31
-28 62 -51 67 -51 6 0 5 4 -2 8 -7 5 -21 24 -31 43 -11 19 -24 33 -30 32 -6
-2 -11 2 -11 7 0 6 -3 9 -7 8 -5 0 -15 1 -23 5 -8 3 -21 7 -28 9 -18 4 14 48
35 48 23 0 89 -73 119 -131 28 -56 45 -60 76 -18 16 22 18 30 9 48 -10 17 -15
19 -32 11 -10 -6 -18 -7 -17 -3 9 25 -87 103 -127 103 -20 1 -20 1 -1 15 26
20 66 19 94 -1 13 -9 25 -14 26 -13 2 2 38 50 81 107 43 56 82 105 86 108 20
12 6 26 -47 51 -76 34 -202 41 -289 15z m215 -412 c0 -5 -2 -10 -4 -10 -3 0
-8 5 -11 10 -3 6 -1 10 4 10 6 0 11 -4 11 -10z m-225 -50 c7 -24 7 -24 -9 -5
-8 11 -16 27 -16 35 0 20 16 1 25 -30z"/>
<path d="M6344 6102 l-112 -3 -7 -392 c-4 -216 -5 -412 -3 -437 l3 -45 113 -3
112 -3 1 193 c0 106 3 210 7 231 l7 39 65 -99 c36 -54 106 -158 154 -230 l89
-133 118 0 119 0 0 440 0 441 -107 -3 -108 -3 -5 -220 -5 -220 -104 150 c-183
263 -206 294 -216 297 -5 2 -60 2 -121 0z"/>
<path d="M7440 6095 c-121 -34 -220 -120 -278 -243 -36 -75 -37 -79 -37 -197
0 -114 2 -123 32 -188 121 -254 445 -332 697 -167 l66 42 0 179 0 179 -222 -2
-223 -3 0 -85 0 -85 113 -3 c103 -2 112 -4 112 -22 0 -25 -53 -40 -138 -40
-74 0 -120 17 -151 56 -115 146 -27 344 152 344 61 0 109 -14 150 -44 l29 -21
79 85 c43 47 77 90 75 95 -5 20 -102 86 -156 106 -73 28 -223 35 -300 14z"/>
<path d="M1557 6058 c-121 -150 -142 -370 -52 -548 52 -102 117 -153 214 -166
l51 -7 0 -107 c0 -225 80 -396 248 -534 80 -65 153 -100 254 -121 78 -16 195
-20 148 -5 -14 4 -43 8 -65 9 -73 2 -185 40 -254 86 -210 141 -311 330 -311
582 0 96 -5 113 -33 113 -23 0 -74 15 -124 36 -52 21 -143 164 -129 201 3 8 2
12 -2 9 -10 -6 -32 105 -32 160 1 90 42 218 86 266 27 30 49 68 39 68 -2 0
-19 -19 -38 -42z"/>
<path d="M5363 5778 l2 -323 28 -57 c50 -102 136 -160 262 -179 177 -27 322
47 394 200 l26 56 0 312 0 313 -117 0 -118 0 0 -270 c0 -211 -3 -278 -14 -305
-26 -61 -112 -84 -170 -46 -54 36 -55 43 -56 344 l0 277 -120 0 -120 0 3 -322z"/>
<path d="M2168 5613 c7 -3 16 -2 19 1 4 3 -2 6 -13 5 -11 0 -14 -3 -6 -6z"/>
<path d="M8735 5370 c28 -12 155 -12 155 0 0 6 -35 10 -87 9 -59 0 -81 -3 -68
-9z"/>
<path d="M2525 5315 c-16 -13 -25 -24 -19 -25 10 0 54 36 54 45 0 8 -4 6 -35
-20z"/>
<path d="M2440 5265 l-45 -24 115 1 c63 1 90 3 60 5 -53 4 -96 22 -54 24 18 0
18 1 -1 9 -27 12 -24 12 -75 -15z"/>
<path d="M2844 5171 c-71 -44 -86 -117 -35 -173 26 -30 35 -33 84 -33 64 0 99
24 118 82 30 92 -84 177 -167 124z"/>
<path d="M5706 4953 c-3 -21 -6 -69 -6 -108 0 -38 3 -87 6 -107 l7 -38 64 0
c58 0 68 3 94 29 33 33 37 65 12 100 -13 19 -14 28 -5 42 15 23 15 54 2 79
-13 24 -62 40 -120 40 -47 0 -47 0 -54 -37z m134 -37 c0 -31 -22 -48 -57 -44
-23 2 -29 8 -31 36 -3 32 -3 32 42 32 42 0 46 -2 46 -24z m-18 -96 c19 0 31
-29 22 -54 -4 -11 -18 -16 -45 -16 -32 0 -39 4 -40 20 -1 11 -2 26 -3 33 -4
21 6 29 28 23 11 -3 29 -6 38 -6z"/>
<path d="M6035 4980 c-3 -5 15 -42 40 -83 39 -65 45 -82 45 -131 0 -53 1 -56
25 -56 23 0 25 3 25 52 0 44 7 61 50 129 53 83 59 99 35 99 -20 0 -55 -37 -80
-84 -11 -20 -22 -36 -25 -36 -3 1 -18 24 -35 52 -29 49 -68 77 -80 58z"/>
<path d="M6590 4849 l0 -139 25 0 c23 0 25 3 25 50 0 44 3 50 20 50 13 0 28
-12 38 -31 32 -57 51 -76 74 -74 13 1 24 3 25 4 2 0 -11 23 -27 50 -17 26 -30
51 -30 54 0 3 11 17 25 31 32 32 33 76 1 113 -22 26 -31 28 -100 30 l-76 2 0
-140z m148 60 c4 -35 -19 -51 -65 -47 -36 3 -38 5 -41 41 l-3 38 53 -3 c49 -3
53 -5 56 -29z"/>
<path d="M7142 4968 c3 -19 9 -21 66 -21 34 0 62 -1 62 -3 0 -1 -29 -51 -65
-110 -36 -59 -64 -112 -62 -118 2 -7 39 -11 98 -11 78 0 94 3 97 16 2 13 -10
17 -59 23 -34 3 -64 8 -67 10 -2 2 24 45 58 95 33 50 64 99 67 107 10 26 -16
34 -110 34 -85 0 -88 -1 -85 -22z"/>
<path d="M7605 4940 c-27 -27 -53 -50 -57 -50 -4 0 -8 20 -8 45 0 37 -3 45
-19 45 -13 0 -20 -10 -25 -31 -8 -39 -8 -234 0 -241 3 -3 13 -4 23 -1 14 3 20
18 25 54 4 27 10 49 14 49 5 0 24 -21 43 -46 40 -53 63 -69 85 -56 13 7 6 20
-41 75 -39 46 -54 71 -48 81 4 8 29 37 55 64 26 27 44 52 41 56 -16 15 -43 2
-88 -44z"/>
<path d="M6942 4843 c3 -130 4 -138 23 -138 19 0 20 8 23 138 l3 137 -26 0
-26 0 3 -137z"/>
<path d="M7835 4849 c-8 -139 -2 -165 33 -143 14 9 18 30 20 120 3 128 -1 154
-27 154 -17 0 -19 -12 -26 -131z"/>
</g>
</svg>
